<svg xmlns="http://www.w3.org/2000/svg" width="42.5" height="33.492" viewBox="0 0 42.5 33.492">
  <g id="Group_1071" data-name="Group 1071" transform="translate(-64.14 -16.71)">
    <g id="Group_992" data-name="Group 992" transform="translate(66.64 19.21)">
      <path id="Path_553" data-name="Path 553" d="M893.722,332.758l-1.095-2.743a13.955,13.955,0,0,1-9.82,3.46,13.3,13.3,0,0,1-9.8-4.193,14.338,14.338,0,0,1-.016-20.122,13.307,13.307,0,0,1,9.82-4.178,13.886,13.886,0,0,1,9.82,3.461l1.095-2.743h5.171v27.058Zm-9.917-5.175a8.907,8.907,0,0,0,6.266-2.354,8.321,8.321,0,0,0,0-12,8.909,8.909,0,0,0-6.266-2.353,8.664,8.664,0,0,0-6.157,2.353,8.428,8.428,0,0,0,0,12A8.661,8.661,0,0,0,883.806,327.583Z" transform="translate(-868.874 -304.983)" fill="#fff" stroke="#fff" stroke-miterlimit="10" stroke-width="5"/>
      <rect id="Rectangle_68" data-name="Rectangle 68" width="8.898" height="8.987" transform="translate(31.102 9.753)" fill="#fff"/>
    </g>
  </g>
</svg>
