<svg xmlns="http://www.w3.org/2000/svg" width="17.948" height="16.188" viewBox="0 0 17.948 16.188"><defs><style>.a{fill:none;stroke:#1fc5b9;stroke-width:2px;}</style></defs><path class="a" d="M7.974,14.188a.935.935,0,0,1-.617-.232c-.644-.563-1.265-1.093-1.813-1.56l0,0A33.725,33.725,0,0,1,1.582,8.678,5.936,5.936,0,0,1,0,4.793a4.984,4.984,0,0,1,1.265-3.4A4.288,4.288,0,0,1,4.455,0,4.011,4.011,0,0,1,6.961.865,5.127,5.127,0,0,1,7.974,1.923,5.127,5.127,0,0,1,8.987.865,4.011,4.011,0,0,1,11.493,0a4.289,4.289,0,0,1,3.19,1.389,4.984,4.984,0,0,1,1.265,3.4,5.935,5.935,0,0,1-1.582,3.885,33.722,33.722,0,0,1-3.959,3.716c-.549.468-1.171,1-1.817,1.563a.936.936,0,0,1-.616.231Z" transform="translate(1 1)"/></svg>